<?xml version="1.0" encoding="UTF-8" standalone="no"?>
<!DOCTYPE svg PUBLIC "-//W3C//DTD SVG 1.1//EN" "http://www.w3.org/Graphics/SVG/1.1/DTD/svg11.dtd">
<svg width="100%" height="100%" viewBox="0 0 319 319" version="1.1" xmlns="http://www.w3.org/2000/svg" xmlns:xlink="http://www.w3.org/1999/xlink" xml:space="preserve" xmlns:serif="http://www.serif.com/" style="fill-rule:evenodd;clip-rule:evenodd;stroke-linejoin:round;stroke-miterlimit:1.41421;">
    <g>
        <path d="M227.321,7.5L40.342,7.5L40.342,310.688L277.846,310.688L277.846,58.025L227.321,7.5Z" style="fill:rgb(232,232,232);fill-rule:nonzero;"/>
        <g>
            <g>
                <path d="M158.348,74.91C143.158,74.91 133.126,81.217 133.126,87.235L133.126,106.431L158.348,106.431L158.348,109.297L111.064,109.297C105.044,109.297 98.74,119.328 98.74,134.519C98.74,149.71 105.045,159.741 111.064,159.741L130.257,159.741L130.257,147.745C130.257,139.659 136.835,133.08 144.922,133.08L171.77,133.078C178.275,133.078 183.568,127.785 183.568,121.279L183.568,100.541L183.57,100.541L183.57,87.235C183.569,81.217 173.538,74.91 158.348,74.91Z" style="fill:rgb(0,74,148);fill-rule:nonzero;"/>
                <circle cx="144.679" cy="91.909" r="3.63" style="fill:white;"/>
            </g>
            <g>
                <path d="M205.632,109.298L186.434,109.298L186.434,121.279C186.434,129.365 179.856,135.943 171.77,135.943L144.921,135.946C138.416,135.946 133.124,141.239 133.124,147.745L133.124,160.979L133.126,160.976L133.126,181.803C133.126,187.822 143.157,194.128 158.348,194.128C173.539,194.128 183.57,187.821 183.57,181.803L183.57,162.607L158.348,162.607L158.348,159.741L205.632,159.741C211.652,159.741 217.956,149.71 217.956,134.519C217.956,119.328 211.651,109.298 205.632,109.298Z" style="fill:rgb(251,146,0);fill-rule:nonzero;"/>
                <circle cx="172.017" cy="177.13" r="3.63" style="fill:white;"/>
            </g>
        </g>
        <path d="M235.14,32.763L40.342,32.763L40.342,7.5L227.321,7.5L235.14,32.763Z" style="fill:rgb(0,74,148);fill-rule:nonzero;"/>
        <path d="M227.321,58.025L277.846,58.025L227.321,7.5L227.321,58.025Z" style="fill:rgb(209,211,211);fill-rule:nonzero;"/>
        <path d="M283.149,52.723L232.625,2.197C231.218,0.79 229.311,0 227.321,0L40.342,0C36.199,0 32.842,3.358 32.842,7.5L32.842,310.688C32.842,314.831 36.199,318.188 40.342,318.188L277.846,318.188C281.989,318.188 285.346,314.831 285.346,310.688L285.346,58.025C285.346,56.036 284.556,54.129 283.149,52.723ZM234.821,25.606L259.739,50.525L234.821,50.525L234.821,25.606ZM47.842,15L219.821,15L219.821,25.263L47.842,25.263L47.842,15ZM270.346,303.188L47.842,303.188L47.842,40.263L219.821,40.263L219.821,58.026C219.821,62.169 223.178,65.526 227.321,65.526L270.345,65.526L270.345,303.188L270.346,303.188Z" style="fill:rgb(51,62,72);fill-rule:nonzero;"/>
    </g>
    <g transform="matrix(0.979116,0,0,0.979116,31.5969,5.89578)">
        <text x="75.861px" y="281.386px" style="font-family:'Arial-Black', 'Arial', sans-serif;font-weight:900;font-size:69.058px;fill:rgb(51,62,72);">PY</text>
    </g>
</svg>
